<mxfile host="65bd71144e">
    <diagram name="Page-1" id="4Fe1I5dRGEgEyMsVQMym">
        <mxGraphModel dx="1683" dy="1877" grid="1" gridSize="10" guides="1" tooltips="1" connect="1" arrows="1" fold="1" page="1" pageScale="1" pageWidth="827" pageHeight="1169" math="0" shadow="0">
            <root>
                <mxCell id="0"/>
                <mxCell id="1" parent="0"/>
                <mxCell id="6" value="" style="rounded=1;whiteSpace=wrap;html=1;fontSize=17;fontColor=#333333;fillColor=#f5f5f5;strokeColor=#666666;" parent="1" vertex="1">
                    <mxGeometry x="170" y="410" width="510" height="380" as="geometry"/>
                </mxCell>
                <mxCell id="2" value="" style="rounded=1;whiteSpace=wrap;html=1;fillColor=#f5f5f5;strokeColor=#666666;fontColor=#333333;" parent="1" vertex="1">
                    <mxGeometry x="170" y="-90" width="730" height="430" as="geometry"/>
                </mxCell>
                <mxCell id="--uYEXLTz-bEyd3GHDbO-6" style="edgeStyle=orthogonalEdgeStyle;rounded=0;orthogonalLoop=1;jettySize=auto;html=1;entryX=0.5;entryY=0;entryDx=0;entryDy=0;fillColor=#0050ef;strokeColor=#001DBC;strokeWidth=2;" parent="1" source="--uYEXLTz-bEyd3GHDbO-2" target="--uYEXLTz-bEyd3GHDbO-5" edge="1">
                    <mxGeometry relative="1" as="geometry">
                        <Array as="points">
                            <mxPoint x="420" y="130"/>
                        </Array>
                    </mxGeometry>
                </mxCell>
                <mxCell id="--uYEXLTz-bEyd3GHDbO-2" value="Game Controller" style="shape=parallelogram;perimeter=parallelogramPerimeter;whiteSpace=wrap;html=1;fixedSize=1;fillColor=#e1d5e7;strokeColor=#9673a6;fontColor=#000000;" parent="1" vertex="1">
                    <mxGeometry x="240" y="100" width="120" height="60" as="geometry"/>
                </mxCell>
                <mxCell id="--uYEXLTz-bEyd3GHDbO-7" style="edgeStyle=orthogonalEdgeStyle;rounded=0;orthogonalLoop=1;jettySize=auto;html=1;entryX=0.5;entryY=0;entryDx=0;entryDy=0;fillColor=#0050ef;strokeColor=#001DBC;strokeWidth=2;" parent="1" source="--uYEXLTz-bEyd3GHDbO-3" target="--uYEXLTz-bEyd3GHDbO-5" edge="1">
                    <mxGeometry relative="1" as="geometry">
                        <Array as="points">
                            <mxPoint x="420" y="50"/>
                        </Array>
                    </mxGeometry>
                </mxCell>
                <mxCell id="22" value="Web Socket&lt;br style=&quot;border-color: var(--border-color);&quot;&gt;to relay sensor information back to controller" style="edgeLabel;html=1;align=center;verticalAlign=middle;resizable=0;points=[];imageWidth=1;" vertex="1" connectable="0" parent="--uYEXLTz-bEyd3GHDbO-7">
                    <mxGeometry x="0.5156" y="-1" relative="1" as="geometry">
                        <mxPoint y="1" as="offset"/>
                    </mxGeometry>
                </mxCell>
                <mxCell id="--uYEXLTz-bEyd3GHDbO-3" value="AI controller" style="shape=parallelogram;perimeter=parallelogramPerimeter;whiteSpace=wrap;html=1;fixedSize=1;fillColor=#e1d5e7;strokeColor=#9673a6;fontColor=#000000;" parent="1" vertex="1">
                    <mxGeometry x="530" y="20" width="120" height="60" as="geometry"/>
                </mxCell>
                <mxCell id="--uYEXLTz-bEyd3GHDbO-13" style="edgeStyle=orthogonalEdgeStyle;rounded=0;orthogonalLoop=1;jettySize=auto;html=1;entryX=0.5;entryY=0;entryDx=0;entryDy=0;fillColor=#60a917;strokeColor=#2D7600;strokeWidth=4;" parent="1" source="--uYEXLTz-bEyd3GHDbO-5" target="--uYEXLTz-bEyd3GHDbO-8" edge="1">
                    <mxGeometry relative="1" as="geometry"/>
                </mxCell>
                <mxCell id="5" value="Serial USB&amp;nbsp;Cable" style="edgeLabel;html=1;align=center;verticalAlign=middle;resizable=0;points=[];fontSize=17;fontColor=#545454;" parent="--uYEXLTz-bEyd3GHDbO-13" vertex="1" connectable="0">
                    <mxGeometry x="0.2" y="2" relative="1" as="geometry">
                        <mxPoint x="-2" y="-38" as="offset"/>
                    </mxGeometry>
                </mxCell>
                <mxCell id="--uYEXLTz-bEyd3GHDbO-5" value="Serial Driver" style="shape=process;whiteSpace=wrap;html=1;backgroundOutline=1;fillColor=#fff2cc;strokeColor=#d6b656;fontColor=#000000;" parent="1" vertex="1">
                    <mxGeometry x="360" y="250" width="120" height="60" as="geometry"/>
                </mxCell>
                <mxCell id="--uYEXLTz-bEyd3GHDbO-11" style="edgeStyle=orthogonalEdgeStyle;rounded=0;orthogonalLoop=1;jettySize=auto;html=1;entryX=0.5;entryY=0;entryDx=0;entryDy=0;fillColor=#b0e3e6;strokeColor=#0e8088;strokeWidth=4;" parent="1" source="--uYEXLTz-bEyd3GHDbO-8" target="--uYEXLTz-bEyd3GHDbO-9" edge="1">
                    <mxGeometry relative="1" as="geometry"/>
                </mxCell>
                <mxCell id="--uYEXLTz-bEyd3GHDbO-12" style="edgeStyle=orthogonalEdgeStyle;rounded=0;orthogonalLoop=1;jettySize=auto;html=1;entryX=0.5;entryY=0;entryDx=0;entryDy=0;strokeWidth=5;fillColor=#b0e3e6;strokeColor=#0e8088;" parent="1" source="--uYEXLTz-bEyd3GHDbO-8" target="--uYEXLTz-bEyd3GHDbO-10" edge="1">
                    <mxGeometry relative="1" as="geometry"/>
                </mxCell>
                <mxCell id="--uYEXLTz-bEyd3GHDbO-8" value="Arduino" style="whiteSpace=wrap;html=1;aspect=fixed;fillColor=#d5e8d4;strokeColor=#82b366;fontColor=#000000;" parent="1" vertex="1">
                    <mxGeometry x="360" y="490" width="120" height="120" as="geometry"/>
                </mxCell>
                <mxCell id="--uYEXLTz-bEyd3GHDbO-9" value="Stepper Motor&lt;br&gt;(Elevation)" style="ellipse;whiteSpace=wrap;html=1;aspect=fixed;fillColor=#647687;fontColor=#ffffff;strokeColor=#314354;" parent="1" vertex="1">
                    <mxGeometry x="190" y="625" width="120" height="120" as="geometry"/>
                </mxCell>
                <mxCell id="--uYEXLTz-bEyd3GHDbO-10" value="Servo Motor&lt;br&gt;(Azimuth)" style="ellipse;whiteSpace=wrap;html=1;aspect=fixed;fillColor=#647687;fontColor=#ffffff;strokeColor=#314354;" parent="1" vertex="1">
                    <mxGeometry x="540" y="625" width="120" height="120" as="geometry"/>
                </mxCell>
                <mxCell id="3" value="&lt;font style=&quot;font-size: 20px;&quot; color=&quot;#545454&quot;&gt;Computer processes&lt;/font&gt;" style="text;html=1;strokeColor=none;fillColor=none;align=center;verticalAlign=middle;whiteSpace=wrap;rounded=0;fontSize=20;" parent="1" vertex="1">
                    <mxGeometry x="320" y="-50" width="210" height="30" as="geometry"/>
                </mxCell>
                <mxCell id="7" value="Turret hardware&amp;nbsp;" style="text;html=1;strokeColor=none;fillColor=none;align=center;verticalAlign=middle;whiteSpace=wrap;rounded=0;fontSize=19;fontColor=#545454;" parent="1" vertex="1">
                    <mxGeometry x="210" y="430" width="160" height="35" as="geometry"/>
                </mxCell>
                <mxCell id="8" value="&lt;font style=&quot;font-size: 12px;&quot;&gt;Shoot relay&lt;/font&gt;" style="shape=process;whiteSpace=wrap;html=1;backgroundOutline=1;fontSize=20;fillColor=#647687;strokeColor=#314354;fontColor=#ffffff;" parent="1" vertex="1">
                    <mxGeometry x="360" y="685" width="120" height="60" as="geometry"/>
                </mxCell>
                <mxCell id="9" style="edgeStyle=orthogonalEdgeStyle;rounded=0;orthogonalLoop=1;jettySize=auto;html=1;fillColor=#b0e3e6;strokeColor=#0e8088;strokeWidth=4;exitX=0.5;exitY=1;exitDx=0;exitDy=0;" parent="1" source="--uYEXLTz-bEyd3GHDbO-8" target="8" edge="1">
                    <mxGeometry relative="1" as="geometry">
                        <mxPoint x="370" y="560" as="sourcePoint"/>
                        <mxPoint x="260" y="635" as="targetPoint"/>
                        <Array as="points"/>
                    </mxGeometry>
                </mxCell>
                <mxCell id="18" style="edgeStyle=orthogonalEdgeStyle;html=1;strokeWidth=2;fillColor=#0050ef;strokeColor=#001DBC;rounded=0;" parent="1" source="10" edge="1">
                    <mxGeometry relative="1" as="geometry">
                        <mxPoint x="420" y="250" as="targetPoint"/>
                    </mxGeometry>
                </mxCell>
                <mxCell id="10" value="RL Agent Controller" style="shape=parallelogram;perimeter=parallelogramPerimeter;whiteSpace=wrap;html=1;fixedSize=1;fillColor=#e1d5e7;strokeColor=#9673a6;fontColor=#000000;spacingLeft=15;spacingRight=15;" parent="1" vertex="1">
                    <mxGeometry x="530" y="170" width="120" height="60" as="geometry"/>
                </mxCell>
                <mxCell id="13" value="&lt;ul&gt;&lt;li&gt;The conputer vision detects objects and passes on the coordinates onto one of the controllers. One one controller should be active at one time. Choose from either or&lt;/li&gt;&lt;li&gt;The ai controller actually uses the outputs and simple math to decide on actions to issue to the turret&lt;/li&gt;&lt;li&gt;The RL Agent controller is a pretrained policy netowork that was trained using a reinforment learning algorith.&lt;/li&gt;&lt;/ul&gt;" style="ellipse;shape=cloud;whiteSpace=wrap;html=1;spacingLeft=60;spacingRight=60;align=left;" parent="1" vertex="1">
                    <mxGeometry x="881" y="-75" width="360" height="410" as="geometry"/>
                </mxCell>
                <mxCell id="14" value="&lt;span style=&quot;background-color: initial;&quot;&gt;The game controller simply takes input from a gaming controller to issue actions to the turret&lt;/span&gt;" style="ellipse;shape=cloud;whiteSpace=wrap;html=1;spacingLeft=60;spacingRight=60;align=left;" parent="1" vertex="1">
                    <mxGeometry x="-80" y="40" width="250" height="210" as="geometry"/>
                </mxCell>
                <mxCell id="16" style="edgeStyle=orthogonalEdgeStyle;html=1;entryX=1;entryY=0.5;entryDx=0;entryDy=0;fillColor=#a20025;strokeColor=#6F0000;strokeWidth=2;rounded=0;" parent="1" source="15" target="--uYEXLTz-bEyd3GHDbO-3" edge="1">
                    <mxGeometry relative="1" as="geometry">
                        <Array as="points">
                            <mxPoint x="690" y="120"/>
                            <mxPoint x="690" y="50"/>
                        </Array>
                    </mxGeometry>
                </mxCell>
                <mxCell id="20" value="UDP for maximum speed" style="edgeLabel;html=1;align=center;verticalAlign=middle;resizable=0;points=[];labelBackgroundColor=#FFFFFF;labelBorderColor=none;spacingLeft=0;spacingBottom=0;spacingRight=0;labelPadding=10;" vertex="1" connectable="0" parent="16">
                    <mxGeometry x="-0.3778" y="-1" relative="1" as="geometry">
                        <mxPoint x="-18" y="-19" as="offset"/>
                    </mxGeometry>
                </mxCell>
                <mxCell id="17" style="edgeStyle=orthogonalEdgeStyle;html=1;entryX=1;entryY=0.5;entryDx=0;entryDy=0;fillColor=#a20025;strokeColor=#6F0000;strokeWidth=2;rounded=0;" parent="1" source="15" target="10" edge="1">
                    <mxGeometry relative="1" as="geometry">
                        <Array as="points">
                            <mxPoint x="690" y="120"/>
                            <mxPoint x="690" y="200"/>
                        </Array>
                    </mxGeometry>
                </mxCell>
                <mxCell id="15" value="Camera Vision" style="shape=parallelogram;perimeter=parallelogramPerimeter;whiteSpace=wrap;html=1;fixedSize=1;fillColor=#e1d5e7;strokeColor=#9673a6;fontColor=#000000;" parent="1" vertex="1">
                    <mxGeometry x="761" y="90" width="120" height="60" as="geometry"/>
                </mxCell>
            </root>
        </mxGraphModel>
    </diagram>
</mxfile>